<svg width="62" height="14" viewBox="0 0 62 14" fill="none" xmlns="http://www.w3.org/2000/svg">
<path d="M4.65805 10.6924C4.65805 10.6401 4.60575 10.5878 4.52729 10.5878C4.44883 10.5878 4.39653 10.6401 4.39653 10.6924C4.39653 10.7447 4.44883 10.797 4.52729 10.7708C4.60575 10.7708 4.65805 10.7447 4.65805 10.6924ZM3.84733 10.5616C3.84733 10.6139 3.89963 10.6924 3.97809 10.6924C4.0304 10.7185 4.10885 10.6924 4.135 10.6401C4.135 10.5878 4.10885 10.5355 4.0304 10.5093C3.95194 10.4832 3.87348 10.5093 3.84733 10.5616ZM5.02418 10.5355C4.94573 10.5355 4.89342 10.5878 4.89342 10.6662C4.89342 10.7185 4.97188 10.7447 5.05034 10.7185C5.12879 10.6924 5.1811 10.6662 5.15495 10.6139C5.15495 10.5616 5.07649 10.5093 5.02418 10.5355ZM6.72409 0.492968C3.11506 0.492968 0.342915 3.26512 0.342915 6.87414C0.342915 9.77705 2.14743 12.2615 4.76266 13.1507C5.10264 13.203 5.20725 12.9938 5.20725 12.8369C5.20725 12.6538 5.20725 11.7646 5.20725 11.2154C5.20725 11.2154 3.37659 11.6077 2.9843 10.4309C2.9843 10.4309 2.69663 9.67244 2.27819 9.48937C2.27819 9.48937 1.67668 9.07094 2.30434 9.07094C2.30434 9.07094 2.95815 9.12324 3.32428 9.7509C3.89963 10.7708 4.84112 10.4832 5.2334 10.3001C5.28571 9.88166 5.44262 9.59398 5.65184 9.41092C4.18731 9.254 2.69663 9.04479 2.69663 6.53416C2.69663 5.80189 2.90584 5.46191 3.32428 4.99117C3.24582 4.80811 3.03661 4.12814 3.40274 3.21281C3.92579 3.0559 5.20725 3.91893 5.20725 3.91893C5.7303 3.76201 6.2795 3.70971 6.8287 3.70971C7.40405 3.70971 7.95325 3.76201 8.47629 3.91893C8.47629 3.91893 9.73161 3.02975 10.2808 3.21281C10.6469 4.12814 10.4116 4.80811 10.3593 4.99117C10.7777 5.46191 11.0392 5.80189 11.0392 6.53416C11.0392 9.04479 9.49624 9.254 8.0317 9.41092C8.26707 9.62014 8.47629 10.0124 8.47629 10.6401C8.47629 11.5031 8.45014 12.6015 8.45014 12.8107C8.45014 12.9938 8.5809 13.203 8.92088 13.1246C11.5361 12.2615 13.3145 9.77705 13.3145 6.87414C13.3145 3.26512 10.3593 0.492968 6.72409 0.492968ZM2.87969 9.51553C2.82739 9.54168 2.85354 9.62014 2.87969 9.67244C2.932 9.69859 2.9843 9.72475 3.03661 9.69859C3.06276 9.67244 3.06276 9.59398 3.01045 9.54168C2.95815 9.51553 2.90584 9.48937 2.87969 9.51553ZM2.59202 9.30631C2.56586 9.35861 2.59202 9.38477 2.64432 9.41092C2.69663 9.43707 2.74893 9.43707 2.77508 9.38477C2.77508 9.35861 2.74893 9.33246 2.69663 9.30631C2.64432 9.28016 2.61817 9.28016 2.59202 9.30631ZM3.42889 10.2478C3.40274 10.2739 3.40274 10.3524 3.4812 10.4047C3.5335 10.457 3.61196 10.4832 3.63811 10.4309C3.66426 10.4047 3.66426 10.3262 3.61196 10.2739C3.55965 10.2216 3.4812 10.1955 3.42889 10.2478ZM3.14122 9.85551C3.08891 9.88166 3.08891 9.96012 3.14122 10.0124C3.19352 10.0647 3.24582 10.0909 3.29813 10.0647C3.32428 10.0386 3.32428 9.96012 3.29813 9.90781C3.24582 9.85551 3.19352 9.82936 3.14122 9.85551ZM24.9852 5.37195C24.7263 4.82742 24.3514 4.40787 23.8605 4.11329C23.3695 3.80978 22.7982 3.65803 22.1465 3.65803C21.4949 3.65803 20.9057 3.80978 20.3791 4.11329C19.8613 4.40787 19.4507 4.83635 19.1472 5.39873C18.8526 5.95218 18.7053 6.5949 18.7053 7.32689C18.7053 8.05888 18.8526 8.7016 19.1472 9.25505C19.4507 9.8085 19.8613 10.237 20.3791 10.5405C20.9057 10.8351 21.4949 10.9824 22.1465 10.9824C23.0571 10.9824 23.8069 10.7101 24.3961 10.1656C24.9852 9.62104 25.3289 8.88459 25.4271 7.95622H21.7047V6.96536H26.7259V7.90266C26.6545 8.67035 26.4135 9.37556 26.0029 10.0183C25.5922 10.6521 25.0522 11.1564 24.3827 11.5313C23.7132 11.8973 22.9678 12.0803 22.1465 12.0803C21.2807 12.0803 20.4906 11.8795 19.7765 11.4778C19.0624 11.0672 18.4955 10.5003 18.076 9.77726C17.6654 9.0542 17.46 8.23741 17.46 7.32689C17.46 6.41637 17.6654 5.59958 18.076 4.87652C18.4955 4.14453 19.0624 3.57769 19.7765 3.17599C20.4906 2.76536 21.2807 2.56005 22.1465 2.56005C23.1374 2.56005 24.0122 2.80553 24.771 3.2965C25.5387 3.78747 26.0966 4.47928 26.4447 5.37195H24.9852ZM28.9663 3.47057C28.7342 3.47057 28.5379 3.39023 28.3772 3.22955C28.2165 3.06887 28.1362 2.87248 28.1362 2.64039C28.1362 2.4083 28.2165 2.21191 28.3772 2.05123C28.5379 1.89055 28.7342 1.81021 28.9663 1.81021C29.1895 1.81021 29.377 1.89055 29.5287 2.05123C29.6894 2.21191 29.7697 2.4083 29.7697 2.64039C29.7697 2.87248 29.6894 3.06887 29.5287 3.22955C29.377 3.39023 29.1895 3.47057 28.9663 3.47057ZM29.5555 4.66228V12H28.337V4.66228H29.5555ZM33.1185 5.66653V9.9915C33.1185 10.3486 33.1944 10.603 33.3461 10.7547C33.4979 10.8976 33.7612 10.969 34.1361 10.969H35.0333V12H33.9353C33.2569 12 32.748 11.8438 32.4088 11.5313C32.0696 11.2189 31.9 10.7056 31.9 9.9915V5.66653H30.9493V4.66228H31.9V2.81446H33.1185V4.66228H35.0333V5.66653H33.1185ZM40.1517 4.52838C40.7052 4.52838 41.205 4.64889 41.6514 4.88991C42.0977 5.122 42.4459 5.47461 42.6958 5.94772C42.9547 6.42083 43.0841 6.9966 43.0841 7.67503V12H41.879V7.8491C41.879 7.11711 41.696 6.5592 41.33 6.17535C40.964 5.78258 40.4641 5.58619 39.8303 5.58619C39.1876 5.58619 38.6743 5.78704 38.2905 6.18874C37.9156 6.59044 37.7281 7.17514 37.7281 7.94283V12H36.5096V2.0914H37.7281V5.7067C37.9691 5.33178 38.2994 5.04166 38.719 4.83635C39.1474 4.63104 39.625 4.52838 40.1517 4.52838ZM51.5821 4.66228V12H50.3636V10.9154C50.1315 11.2903 49.8056 11.5849 49.3861 11.7991C48.9755 12.0045 48.5202 12.1071 48.0203 12.1071C47.449 12.1071 46.9357 11.9911 46.4805 11.759C46.0252 11.518 45.6637 11.1609 45.3959 10.6878C45.137 10.2147 45.0076 9.6389 45.0076 8.96047V4.66228H46.2127V8.79979C46.2127 9.52285 46.3957 10.0808 46.7617 10.4735C47.1276 10.8574 47.6275 11.0493 48.2613 11.0493C48.913 11.0493 49.4263 10.8485 49.8012 10.4468C50.1761 10.0451 50.3636 9.46036 50.3636 8.69267V4.66228H51.5821ZM54.8579 6.02806C55.1078 5.59065 55.4738 5.23359 55.9559 4.95686C56.4379 4.68013 56.9869 4.54177 57.6028 4.54177C58.2634 4.54177 58.857 4.69799 59.3837 5.01042C59.9104 5.32285 60.3255 5.76472 60.629 6.33603C60.9325 6.89841 61.0842 7.55452 61.0842 8.30436C61.0842 9.04527 60.9325 9.70585 60.629 10.2861C60.3255 10.8663 59.9059 11.3171 59.3703 11.6385C58.8437 11.9598 58.2545 12.1205 57.6028 12.1205C56.9691 12.1205 56.4111 11.9821 55.9291 11.7054C55.456 11.4287 55.0989 11.0761 54.8579 10.6476V12H53.6394V2.0914H54.8579V6.02806ZM59.839 8.30436C59.839 7.75091 59.7274 7.26887 59.5042 6.85824C59.2811 6.44761 58.9776 6.13518 58.5937 5.92094C58.2188 5.7067 57.8037 5.59958 57.3484 5.59958C56.9021 5.59958 56.487 5.71116 56.1032 5.93433C55.7282 6.14857 55.4247 6.46547 55.1926 6.88502C54.9695 7.29565 54.8579 7.77322 54.8579 8.31775C54.8579 8.8712 54.9695 9.35771 55.1926 9.77726C55.4247 10.1879 55.7282 10.5048 56.1032 10.7279C56.487 10.9422 56.9021 11.0493 57.3484 11.0493C57.8037 11.0493 58.2188 10.9422 58.5937 10.7279C58.9776 10.5048 59.2811 10.1879 59.5042 9.77726C59.7274 9.35771 59.839 8.86674 59.839 8.30436Z" fill="white"/>
</svg>
